<svg width="243" height="55" viewBox="0 0 243 55" fill="none" xmlns="http://www.w3.org/2000/svg">
<path d="M98.0245 15.5983V18.7499H91.3581V38.0844H87.673V18.7478H81.0677V15.5983H98.0245ZM109.745 37.5664L109.748 37.5695C108.639 38.1288 107.413 38.4131 106.171 38.394C103.911 38.394 102.078 37.6422 100.674 36.1464C99.2698 34.649 98.5686 32.6532 98.5686 30.1604V29.6991C98.5414 28.1574 98.854 26.6316 99.4843 25.2271C100.039 23.982 100.933 22.9186 102.063 22.1621C103.158 21.4341 104.445 21.0522 105.759 21.0646C107.924 21.0646 109.593 21.7896 110.773 23.2395C111.953 24.6946 112.543 26.7472 112.543 29.4019V30.9184H102.164C102.271 32.2961 102.71 33.389 103.477 34.1918C104.231 34.9896 105.284 35.4276 106.378 35.3972C107.971 35.4178 109.47 34.634 110.37 33.31L112.293 35.2439C111.667 36.2331 110.785 37.0354 109.745 37.5664ZM108.067 25.0413H108.063C107.51 24.3989 106.737 24.0764 105.747 24.0764C104.832 24.0465 103.955 24.4479 103.375 25.1569C102.772 25.8772 102.39 26.8824 102.223 28.1682H109.019V27.8937C108.94 26.6342 108.623 25.6858 108.067 25.0413ZM125.181 38.086L125.184 38.0844L120.473 30.9184L118.885 32.6325V38.0839H115.317V14.362H118.889V28.0459L120.004 26.58L124.392 21.3732H128.676L122.776 28.3369L129.311 38.0854H125.181V38.086ZM131.907 17.3119V17.3088H135.475V21.3721H138.281V24.1569H135.475V33.4818C135.475 34.1185 135.594 34.5814 135.836 34.8626C136.075 35.149 136.502 35.2878 137.121 35.2878C137.539 35.2878 137.961 35.2351 138.37 35.1345V38.0364C137.606 38.2671 136.814 38.3858 136.018 38.3904C133.281 38.3904 131.907 36.8027 131.907 33.6196V24.1533H129.292V21.3732H131.907V17.3134V17.3119ZM154.135 38.0829H150.495C150.288 37.585 150.149 37.0607 150.083 36.5251C149.03 37.7305 147.508 38.4126 145.912 38.3904C144.319 38.3904 143.017 37.9131 142.009 36.956C141.019 36.0458 140.469 34.7512 140.497 33.4049C140.497 31.6248 141.123 30.2559 142.383 29.3054C143.641 28.3524 145.438 27.8756 147.777 27.8756H149.967V26.7792C150.002 26.0227 149.758 25.2818 149.273 24.7008C148.814 24.1838 148.116 23.9232 147.176 23.9232C146.46 23.8917 145.753 24.1172 145.18 24.5609C144.68 24.9448 144.391 25.5501 144.401 26.1915H140.834C140.84 25.2627 141.144 24.3623 141.701 23.6224C142.307 22.7978 143.122 22.1497 144.055 21.7426C145.101 21.2798 146.236 21.0476 147.38 21.0636C149.241 21.0636 150.721 21.5579 151.831 22.5388C152.933 23.5228 153.503 24.9051 153.532 26.6858V34.2233C153.532 35.7259 153.732 36.925 154.135 37.8192V38.0834V38.0829ZM144.747 34.7414C145.252 35.1867 145.907 35.4178 146.573 35.3812C147.271 35.3812 147.959 35.1944 148.563 34.8389C149.157 34.5055 149.644 34.0019 149.964 33.3884V30.2358H148.04C146.72 30.2358 145.727 30.4788 145.061 30.9654C144.41 31.4174 144.033 32.1981 144.064 33.019C144.036 33.6671 144.285 34.2976 144.747 34.7414ZM181.486 26.547V35.1665C180.666 36.2609 179.551 37.0968 178.27 37.572C176.781 38.1412 175.197 38.4188 173.603 38.3904C171.927 38.4229 170.28 37.9797 168.844 37.1108C167.446 36.2331 166.333 34.9565 165.651 33.4447C164.868 31.6945 164.472 29.7941 164.488 27.8762V26.1161C164.488 22.7199 165.257 20.0631 166.804 18.1545C168.35 16.2464 170.51 15.2897 173.278 15.2897C175.658 15.2897 177.547 15.9094 178.946 17.1493C180.345 18.3908 181.187 20.1761 181.472 22.5047H177.829C177.418 19.7968 175.925 18.4419 173.351 18.4419C171.688 18.4419 170.421 19.0724 169.557 20.3309C168.689 21.5914 168.243 23.4382 168.215 25.8788V27.6042C168.215 30.0309 168.702 31.9163 169.676 33.2599C170.648 34.6025 171.999 35.2723 173.734 35.2723C175.632 35.2723 176.984 34.8172 177.785 33.9137V29.5123H173.38V26.546H181.485V26.547H181.486ZM193.555 21.2819L193.54 24.8014C193.059 24.7193 192.572 24.6786 192.085 24.6786C190.451 24.6786 189.348 25.3385 188.782 26.6558V38.0854H185.214V21.3732H188.622L188.709 23.2436C189.568 21.7906 190.762 21.0636 192.292 21.0636C192.72 21.0512 193.15 21.1235 193.553 21.2813H193.555V21.2819ZM194.593 29.759V29.5743C194.572 28.0485 194.889 26.5367 195.524 25.1497C196.078 23.9098 196.979 22.8592 198.121 22.1245C199.274 21.4072 200.61 21.0393 201.964 21.0646C204.108 21.0646 205.849 21.7911 207.182 23.2431C208.517 24.6946 209.243 26.6192 209.351 29.0165L209.366 29.9014C209.391 31.421 209.083 32.9297 208.46 34.3167C207.911 35.5535 207.016 36.6015 205.877 37.3295C204.711 38.0514 203.366 38.4193 201.995 38.3914C199.755 38.3914 197.96 37.6076 196.615 36.0375C195.265 34.4668 194.593 32.3781 194.593 29.759ZM199.191 25.5362C198.506 26.5109 198.164 27.9628 198.164 29.8978C198.164 31.6181 198.5 32.9622 199.176 33.9354C199.817 34.8925 200.88 35.4441 201.995 35.3966C203.127 35.4343 204.193 34.8719 204.805 33.9148C205.478 32.9277 205.812 31.4803 205.812 29.5738C205.812 27.8865 205.468 26.547 204.777 25.5614C204.142 24.6425 203.102 24.0878 201.989 24.0749C200.876 24.078 199.833 24.6218 199.189 25.5346L199.191 25.5362ZM222.092 38.0829L222 36.4472C220.961 37.7428 219.47 38.3909 217.541 38.3909C215.822 38.394 214.514 37.8636 213.628 36.8032C212.744 35.7434 212.298 34.2078 212.298 32.2017V21.3742H215.868V32.1547C215.868 34.2744 216.704 35.3347 218.377 35.3347C220.112 35.3347 221.281 34.682 221.884 33.374V21.3742H225.455V38.0849H222.091V38.0829H222.092ZM243 29.6702V29.6656V29.8978C243 32.4824 242.44 34.5453 241.325 36.084C240.281 37.5844 238.599 38.4472 236.833 38.3904C235.088 38.3904 233.696 37.7903 232.65 36.5844V44.5069H229.082V21.3753H232.37L232.514 23.0739C233.561 21.737 234.988 21.0672 236.789 21.0672C238.725 21.0672 240.247 21.8273 241.346 23.3484C242.447 24.8602 243 26.9711 243 29.6692V29.6702ZM238.486 33.9534C239.124 32.9911 239.445 31.5314 239.445 29.5743C239.445 27.9081 239.127 26.5836 238.499 25.6043C237.926 24.66 236.889 24.0976 235.79 24.1384C234.331 24.1384 233.284 24.7735 232.65 26.0408V33.4524C233.295 34.7481 234.35 35.3977 235.821 35.3977C236.903 35.4271 237.918 34.8776 238.486 33.9534ZM41.6844 27.1553V54.9954H38.8931V22.3675H56.8025V27.1553H41.6844ZM35.6988 20.9599H35.69V54.9954H32.893V16.1715H56.7999V20.9599H35.6988ZM0.00360295 16.1715H23.6934V54.9954H20.901V20.9599H0.00360295V16.1715ZM56.802 14.7639H29.6827V54.9954H26.9093V14.767H0V9.13709H56.7999V14.767L56.802 14.7639ZM0.00360295 28.566H11.7091V54.9995H8.80277V33.3322L8.76683 33.3353V33.3322H0.00410423V28.5645V28.566H0.00360295ZM0.00360295 22.3706H17.7021V55H14.9081V27.2441L14.8675 27.2503V27.1538H0.00717458V22.3659V22.369L0.00360295 22.3706ZM0.00360295 34.762H5.82197V55H2.98027V37.6722H0.00360295V34.762ZM0.00360295 7.72121V0H56.7999V7.72121H0H0.00360295ZM47.6722 33.3327V54.9969H44.8855V28.5676H56.802V33.3353H47.6722V33.3327ZM56.802 37.6722H53.7V54.9969H50.8784V34.7635H56.7999V37.6732L56.802 37.6722Z" fill="black"/>
</svg>
