<svg width="106" height="64" viewBox="0 0 106 64" fill="none" xmlns="http://www.w3.org/2000/svg">
<g opacity="0.2">
<path d="M45.933 40.0335C45.933 52.1649 36.0979 62 23.9665 62C11.8351 62 2 52.1649 2 40.0335C2 16.0649 24.6176 2.62822 40.3705 2L42.3893 6.70711C31.0356 10.696 25.7521 18.1341 26.2141 18.1798C37.2873 19.3067 45.933 28.6599 45.933 40.0335Z" fill="#FE3839"/>
<path d="M103.638 40.0335C103.638 52.1649 93.803 62 81.6716 62C69.5401 62 59.7051 52.1649 59.7051 40.0335C59.7051 16.0649 82.3242 2.62822 98.0755 2L100.094 6.70711C88.7406 10.696 83.4571 18.1341 83.9176 18.1798C94.9924 19.3067 103.638 28.6599 103.638 40.0335Z" fill="#FE3839"/>
</g>
</svg>
