<svg width="232" height="70" viewBox="0 0 232 70" fill="none" xmlns="http://www.w3.org/2000/svg">
<path d="M162.501 34.3932C161.068 34.3932 159.906 35.5856 159.906 37.0417C159.853 38.4977 160.97 39.7207 162.404 39.7766C163.837 39.8307 165.041 38.6937 165.095 37.2382C165.096 37.1729 165.096 37.1064 165.095 37.0422C165.094 35.5832 163.934 34.3932 162.501 34.3932ZM72.5738 36.9098C72.5738 36.9098 73.8673 32.4905 74.0665 31.7989C74.587 30.0015 75.3716 27.1718 75.3716 27.1718H75.4984C75.4984 27.1718 76.2181 30.1045 76.6899 31.7724C76.8741 32.4228 78.1108 36.9098 78.1108 36.9098H72.5738ZM80.4552 44.9316H85.1387L78.0633 22.8831C77.2041 22.6047 76.3066 22.4652 75.4063 22.4694C74.3351 22.4694 73.9547 22.6135 73.1129 22.8849L65.6102 44.9352H70.0969C70.0969 44.9352 70.6996 43.0042 71.4361 40.6041H79.193L80.4569 44.9322H80.4552V44.9316ZM232 44.9316C232 44.9316 229.781 40.1062 229.24 39.0144C228.627 37.7744 228.062 36.9204 226.808 36.6161V36.542C227.648 36.3837 228.314 35.8657 229.037 34.2885C229.731 32.7453 229.937 32.4169 230.345 32.052C230.744 31.683 231.288 31.8254 231.288 31.8254L231.494 28.9539C230.866 28.8845 230.235 28.8709 229.604 28.9133C228.505 28.9833 227.93 29.3011 227.391 29.862C226.971 30.287 226.68 30.9243 226.321 31.67C225.941 32.4669 225.64 33.109 225.257 33.9206C224.867 34.7546 224.676 35.1259 223.622 35.1259H222.942V29.1664H218.857V44.9352H222.942V38.4883L223.496 38.4771C224.658 38.4771 224.855 38.7731 225.471 40.0232C226.197 41.5175 227.568 44.9352 227.568 44.9352H231.995L232 44.9316ZM215.313 44.9316V29.1605H211.246V35.1242H206.641V29.1605H202.578V44.9316H206.641V38.4924H211.244V44.9316H215.313ZM103.567 29.0186L103.553 44.103C105.482 44.9352 107.603 45.3065 109.48 45.3065C113.799 45.3065 116.109 43.0324 116.109 39.2811C116.109 35.8863 114.063 33.7864 110.239 33.7864C109.271 33.7864 108.702 33.9153 107.635 34.179V29.0169H103.57L103.567 29.0186ZM111.901 39.4717C111.901 41.0284 111.367 42.0955 109.417 42.0955C108.756 42.0955 108.485 42.0955 107.631 41.85V37.3018C108.691 37.0929 108.785 37.057 109.413 37.057C111.282 37.057 111.901 37.9827 111.901 39.4747V39.4717ZM200.451 43.422C199.373 41.7547 199.097 40.773 199.097 38.6796V34.4321C199.097 32.1385 198.842 31.2951 198.241 30.4553C197.416 29.2747 196.042 28.765 193.505 28.765C191.71 28.765 189.956 28.961 188.276 29.3965L188.875 32.441C190.016 32.2745 191.217 32.1362 192.072 32.1362C194.76 32.1362 195.068 32.5364 195.068 34.5904V35.3649C194.401 35.176 193.71 35.0806 193.017 35.0812C188.951 35.0812 186.812 37.1046 186.812 40.4393C186.812 43.5768 189.099 45.2883 191.901 45.2883C192.942 45.2883 194.026 45.09 194.883 44.7351C195.405 44.5044 195.628 44.3725 196.302 43.9229C196.707 44.5285 197.52 45.1406 197.851 45.2524L200.454 43.4197L200.451 43.422ZM195.281 41.6023C194.392 41.9154 193.803 41.9895 193.092 41.9895C191.636 41.9895 190.817 41.4039 190.817 39.8831C190.817 38.2994 191.861 37.7638 193.877 37.7638C194.366 37.7638 194.85 37.8374 195.07 37.9192V39.058C195.07 40.2816 195.136 41.0832 195.283 41.604L195.281 41.6023ZM155.593 43.4197C154.522 41.7547 154.241 40.7724 154.241 38.6807V34.4303C154.241 32.1367 153.984 31.2934 153.388 30.4535C152.563 29.2741 151.185 28.7632 148.649 28.7632C146.858 28.7632 145.1 28.9592 143.42 29.3947L144.021 32.4393C145.164 32.2733 146.355 32.1344 147.217 32.1344C149.91 32.1344 150.221 32.5346 150.221 34.5886V35.3631C149.621 35.1972 148.951 35.0795 148.164 35.0795C144.098 35.0795 141.955 37.0999 141.955 40.4375C141.955 43.5739 144.243 45.2859 147.045 45.2859C148.087 45.2859 149.175 45.0894 150.032 44.7327C150.549 44.502 150.776 44.3708 151.446 43.9223C151.854 44.5256 152.663 45.1382 152.996 45.2477L155.598 43.4173L155.593 43.4197ZM150.427 41.6023C149.533 41.9154 148.948 41.9895 148.24 41.9895C146.788 41.9895 145.959 41.4039 145.959 39.8831C145.959 38.2994 147.001 37.7638 149.018 37.7638C149.501 37.7638 149.99 37.8374 150.219 37.9192V39.058C150.219 40.2816 150.277 41.0832 150.427 41.604V41.6023ZM100.344 44.9316V29.7367C98.1124 29.0575 96.3986 28.7638 94.1561 28.7638C91.92 28.7638 90.2426 29.0557 88.01 29.7349V37.5154C88.01 39.6306 87.9747 40.2651 87.75 40.946C87.5277 41.5481 87.2231 42.2691 86.4073 42.8258L87.5132 45.253C90.7822 44.3125 92.0091 42.8635 92.0091 38.2617V32.5369C93.0872 32.3769 93.2997 32.3398 94.1596 32.3398C95.0269 32.3398 95.2076 32.3769 96.2833 32.5369V44.9322H100.35H100.344V44.9316ZM131.114 50.0996V44.4343C131.629 44.7427 132.656 45.2018 134.387 45.2018C137.829 45.2018 140.367 42.2867 140.367 36.9534C140.367 31.2104 137.843 28.7526 133.705 28.7526C132.653 28.7526 131.963 28.8633 131.111 29.2776V22.5053H127.065V29.277C126.217 28.8633 125.527 28.752 124.474 28.752C120.333 28.752 117.812 31.311 117.812 37.0522C117.812 42.3838 120.092 45.2036 123.786 45.2036C125.526 45.2036 126.552 44.7427 127.071 44.4337V50.1026H131.117L131.114 50.0996ZM121.983 37.0534C121.983 33.8859 122.916 32.2115 124.782 32.2115C125.569 32.2115 126.092 32.2062 127.064 32.68V41.388C126.179 41.6835 125.762 41.72 124.977 41.72C122.854 41.72 121.981 39.9538 121.981 37.0528H121.983V37.0534ZM136.191 36.9534C136.191 39.8537 135.06 41.7247 133.197 41.7247C132.411 41.7247 132 41.6835 131.11 41.3892V32.6829C132.081 32.2091 132.607 32.2144 133.39 32.2144C135.259 32.2144 136.191 33.7882 136.191 36.9569V36.9534ZM185.262 38.0881C185.262 34.179 183.016 31.487 178.299 31.487C177.14 31.487 176.332 31.5976 175.08 31.9007L175.074 26.2737C175.851 26.163 177.178 26.0624 178.65 26.0624C180.036 26.0624 181.795 26.1395 183.334 26.332L183.443 23.0714C181.692 22.6706 179.146 22.4246 177.176 22.4246C175.234 22.4246 172.209 22.9231 170.769 23.3186V44.1077C173.013 44.9452 175.205 45.3242 177.448 45.3242C182.593 45.3242 185.262 42.5492 185.262 38.084V38.0881ZM180.937 38.4018C180.937 40.5082 179.791 41.8954 177.687 41.8954C176.854 41.8954 176.169 41.8954 175.081 41.5946V35.216C175.562 35.1365 176.555 34.9765 177.687 35.0206C179.827 35.1036 180.937 36.1241 180.937 38.4018ZM22.005 11.0711L15.9192 29.6937H28.1853L22.0809 11.0711H22.005ZM0.683337 60.6569C0.301776 60.6622 -0.00451588 60.9812 0.000116129 61.3684V69.2879C-0.00683188 69.6757 0.298881 69.9947 0.679284 70C0.681021 70 0.681021 70 0.683337 70H43.3985C43.7784 69.9923 44.0818 69.6757 44.076 69.2879V61.3684C44.0835 60.983 43.7818 60.6646 43.4003 60.6569H0.683337ZM22.0421 0C26.7152 0 28.1853 3.41354 29.411 6.83121C29.9339 8.27549 42.0767 42.1784 42.4409 43.1949C42.5416 43.4762 42.4774 43.9441 42.0466 44.1106C41.6158 44.276 35.3053 46.7808 34.9585 46.9139C34.6035 47.0386 34.2173 46.8526 34.0859 46.496C33.9597 46.1417 31.342 38.752 31.0479 37.9262H13.0583C12.7601 38.7514 10.1182 46.1535 9.99657 46.4942C9.8744 46.8297 9.49921 47.058 9.13038 46.9086C8.75751 46.7573 2.41918 44.2548 2.04399 44.103C1.68906 43.9606 1.51131 43.555 1.64274 43.1913C2.08973 41.9171 14.0484 8.56387 14.6593 6.82709C15.8479 3.46887 17.373 0 22.0421 0Z" fill="black"/>
</svg>
