<svg width="134" height="89" viewBox="0 0 134 89" fill="none" xmlns="http://www.w3.org/2000/svg">
<path d="M44.4109 57.7087L39.7081 50.3663H35.0034V57.7087H28.8387V32.3686H39.6722C45.835 32.3686 49.9553 35.7995 49.9553 41.2726C49.9553 44.5938 48.3864 47.273 45.7633 48.8378L51.5952 57.7087H44.4109V57.7087ZM35.0034 44.7036H39.5628C41.9343 44.7036 43.7912 43.3634 43.7912 41.2739C43.7912 39.2266 41.9343 37.9215 39.5628 37.9215H35.0034V44.7036ZM60.7781 37.8468V42.4699H71.7908V47.8314H60.7781V52.2279H73.3578V57.7087H54.6153V32.3686H73.3578V37.8468H60.7781ZM100.837 44.9665C100.837 52.4889 95.2619 57.7081 87.4579 57.7081H77.4982V32.3679H87.4579C95.2619 32.3686 100.837 37.5462 100.837 44.9665ZM94.6046 44.9665C94.6046 41.0512 91.5033 38.0325 87.4585 38.0325H83.6635V52.0422H87.4585C91.5033 52.0422 94.6046 48.9884 94.6046 44.9665ZM104.229 57.7087V32.3686H110.393V57.7087H104.229ZM133.996 37.9974H126.884V57.7087H120.757V37.9962H113.647V32.3667H134V37.9962L133.996 37.9974ZM18.7935 48.5876H25.3211C24.0385 54.3754 19.3854 58.1912 13.127 58.1912C5.652 58.1912 0 52.6765 0 45.0374C0 37.3975 5.65011 31.8835 13.127 31.8835C19.3841 31.8835 24.0429 35.6993 25.3211 41.489H18.7935C17.8436 39.1564 15.8602 37.7709 13.088 37.7709C9.04195 37.7709 6.23387 40.8253 6.23387 45.0374C6.23387 49.2494 9.04195 52.3057 13.088 52.3057C15.8602 52.3057 17.8442 50.9241 18.7935 48.5876ZM23.1308 81.9467C23.1308 86.1632 19.8043 89 14.2171 89H1.72359V63.6209H13.4855C18.8916 63.6209 22.0324 66.2337 22.0324 70.3756C22.0324 72.7286 20.7498 75.155 18.601 75.9381C21.6305 76.6082 23.1308 79.219 23.1308 81.9467ZM7.89645 68.7712V74.072H12.5382C14.8739 74.072 16.154 72.8779 16.154 71.2352C16.154 69.6295 14.9103 68.7712 12.5382 68.7712H7.89645ZM17.1032 81.1253C17.1032 79.5579 15.8231 78.6593 13.5239 78.6593H7.89708V83.7751H13.4107C15.9703 83.7751 17.0988 82.6181 17.0988 81.1253H17.1032V81.1253ZM42.1966 84.6328H31.6814L30.0333 88.9994H23.4616L34.0158 63.6203H39.9339L50.4535 88.9994H43.878L42.1966 84.6328ZM40.1899 79.3709L36.9352 70.8249L33.6856 79.3697H40.1899V79.3709ZM75.3355 63.619V88.9962H70.5843L58.6777 75.0765V88.9962H52.5054V63.6209H57.2177L69.1966 77.9139V63.6209H75.3349V63.619H75.3355ZM90.2704 79.5196L86.6194 83.8459V88.9962H80.4465V63.6209H86.6194V75.2661L96.5175 63.6209H103.825L94.3642 74.7447L104.628 89H96.922L90.2698 79.5222V79.5196H90.2704ZM23.8586 1.11365V26.4557H17.7297V16.9517H7.62848V26.4557H1.46631V1.11365H7.62848V11.2903H17.7297V1.11365H23.8586ZM94.7159 26.4557H88.5525V13.7493L83.0445 22.4281V22.4657H79.6193V22.4268L74.0774 13.6733L74.1101 26.4557H67.9499V1.11365H72.5457L81.3335 14.6427L90.1238 1.11811H94.7165V26.4557H94.7159ZM105.992 6.59254V11.2156H117.008V16.5809H105.992V20.9736H118.574V26.4563H99.8313V1.11429H118.574V6.59318H105.992V6.59254ZM45.9017 0C55.7123 0 63.6585 7.7381 63.6585 17.288C63.6604 20.5454 62.7225 23.7319 60.9592 26.4557H52.396C55.1009 24.3688 56.6874 21.1197 56.683 17.6729C56.683 11.5902 51.8569 6.65891 45.9017 6.65891C39.9471 6.65891 35.1211 11.5909 35.1211 17.6729C35.1211 21.2627 36.8094 24.4415 39.4118 26.4557H30.8448C29.0828 23.7319 28.1424 20.5454 28.1449 17.288C28.1455 7.73746 36.0992 0 45.9017 0ZM40.078 20.1172H51.7254C50.8938 22.6495 48.6022 24.4709 45.9017 24.4709C43.2037 24.4709 40.9133 22.6495 40.078 20.1172Z" fill="black"/>
</svg>
