<svg width="225" height="60" viewBox="0 0 225 60" fill="none" xmlns="http://www.w3.org/2000/svg">
<path d="M67.4638 10.2387C71.231 9.91926 74.5055 12.6388 74.6679 16.3178V17.1158C74.6679 21.2761 71.8854 23.6736 67.4638 23.6736H58.6221V30.391H54.8555V10.2381H67.4638V10.2387ZM67.6284 20.157C69.2643 20.3146 70.7394 19.0368 70.9029 17.4364V16.9561C71.0594 15.1712 69.7402 13.595 67.9564 13.4374H58.4597V20.1565H67.6284V20.157ZM88.7508 30.7137C82.2006 30.7137 76.7976 26.3942 76.7976 20.157C76.7976 13.9166 82.2006 9.59766 88.7508 9.59766C95.3005 9.59766 100.704 13.9161 100.704 20.157C100.704 26.3942 95.3005 30.711 88.7508 30.711V30.7137ZM88.7508 12.9583C84.6567 12.6383 81.0568 15.6751 80.7277 19.6757V20.157C80.7277 24.313 83.8393 27.3536 88.7525 27.3536C93.6646 27.3536 96.7746 24.313 96.7746 20.1532C96.7746 15.9962 93.6646 12.9567 88.7508 12.9567" fill="black"/>
<path d="M116.421 30.7131C109.545 30.7131 104.469 26.3936 104.469 20.1564C104.469 13.916 109.71 9.59705 116.423 9.59705C119.862 9.43733 123.135 10.5581 125.919 12.6377L123.955 15.5159C121.826 13.9154 119.207 12.9561 116.589 12.9561C111.51 12.9561 108.399 15.9951 108.399 19.9951C108.399 23.994 111.509 27.1933 116.585 27.1933C119.37 27.1933 121.99 26.3936 124.12 24.7921L126.082 27.6735C123.251 29.6542 119.878 30.7163 116.423 30.7099" fill="black"/>
<path d="M158.834 25.2738L156.541 30.0719H152.445L162.434 10.0771H166.365L176.354 30.0719H172.26L169.967 25.2738H158.834ZM160.469 22.0729H168.33L164.4 13.9158L160.47 22.0729H160.469Z" fill="black"/>
<path d="M196.33 30.2331V21.5957H182.904V30.2331H179.137V10.2383H182.904V18.3954H196.33V10.2383H200.095V30.2331H196.33ZM205.827 30.2331V10.2383H209.593V19.5145L219.909 10.2383H224.494L214.015 19.835L224.985 30.2331H219.909L209.593 20.4744V30.2331H205.827Z" fill="black"/>
<path d="M142.953 17.4355H134.111V13.2769H148.684V10.0781H130.18V30.0713H142.79C147.21 30.0713 150.322 27.6738 150.322 23.6733C150.322 19.6748 147.539 17.4355 142.953 17.4355ZM143.28 26.7117H134.111V20.7945H143.281C145.574 20.7945 147.048 22.075 147.048 23.8335C147.048 25.5921 145.9 26.8715 143.28 26.7117Z" fill="black"/>
<path d="M126.247 55.6654V55.824C126.243 56.8162 125.899 57.7788 125.266 58.5436C124.611 59.1841 123.625 59.6638 122.644 59.6638C120.515 59.6638 118.879 57.903 118.879 55.9837C118.879 55.0243 119.369 54.0655 120.025 53.2631C120.678 52.6242 121.66 52.3037 122.644 52.3037C123.956 52.3037 125.101 52.9442 125.756 53.9058L124.774 54.5462C124.283 53.9057 123.462 53.5836 122.644 53.5836C121.989 53.5836 121.335 53.7444 120.843 54.2241C120.352 54.7038 120.025 55.3443 120.187 55.9832C120.187 56.6253 120.352 57.2636 120.843 57.7444C121.335 58.2225 121.989 58.3833 122.644 58.3833C123.625 58.3833 124.611 57.7444 124.938 56.7829H122.317V55.5013L126.248 55.6627V55.6654H126.247Z" fill="black"/>
<path d="M134.599 59.504H133.29L131.815 56.9431H129.034V59.504H127.887V52.6247H132.472C132.963 52.6247 133.618 52.7861 133.944 53.2636C134.272 53.7455 134.434 54.2252 134.434 54.8641C134.597 55.8455 133.94 56.7726 132.963 56.9437L134.599 59.504ZM132.308 55.824C132.798 55.824 133.29 55.5024 133.29 55.1835V54.8636C133.29 54.2247 132.963 53.9063 132.308 53.9063H129.031V55.824H132.308ZM143.278 55.9837C143.278 58.0633 141.64 59.6638 139.512 59.6638C137.386 59.6638 135.745 58.0633 135.745 55.9837C135.745 55.0243 136.237 54.0655 136.891 53.2631C137.546 52.6242 138.528 52.3037 139.512 52.3037C140.493 52.3037 141.314 52.6247 141.969 53.2631C142.787 54.0655 143.278 55.0254 143.278 55.9837ZM141.969 55.9837C141.969 55.3448 141.804 54.7043 141.314 54.2246C140.823 53.7444 140.168 53.583 139.512 53.583C138.856 53.583 138.201 53.7449 137.711 54.2246C137.218 54.7043 136.891 55.3448 137.056 55.9837C137.056 56.6258 137.218 57.2642 137.711 57.745C138.856 58.7038 140.333 58.7038 141.479 57.745C141.804 57.2642 142.132 56.6226 141.969 55.9837Z" fill="black"/>
<path d="M151.304 57.2645C151.304 57.905 150.979 58.5439 150.486 59.0236C149.013 59.9851 147.21 59.9851 145.737 59.0236C145.245 58.5439 144.754 57.9034 144.754 57.2645V52.625H145.9V56.9434C145.9 57.905 146.555 58.5438 148.031 58.5438C149.504 58.5438 150.159 58.0636 150.159 56.9434V52.625H151.304V57.2618V57.2645Z" fill="black"/>
<path d="M157.685 52.625C158.176 52.625 158.831 52.7864 159.157 53.2672C159.484 53.7453 159.648 54.2249 159.648 54.8638C159.648 55.5065 159.484 55.984 159.157 56.4643C158.666 56.944 158.176 57.1069 157.52 57.1069H154.244V59.664H153.098V52.7847H157.685V52.625H157.685ZM157.521 55.8243C158.177 55.8243 158.503 55.5027 158.503 54.8638C158.503 54.2249 158.177 53.9066 157.356 53.9066H154.081V55.8243H157.521Z" fill="black"/>
<path d="M6.05488 54.2257C5.40093 53.7454 4.58135 53.5841 3.5999 53.5841C2.28932 53.5841 1.79886 53.9051 1.79886 54.3843C1.79886 54.8645 1.96073 54.8645 2.45442 55.0258L4.41678 55.1862C5.07395 55.1862 5.72736 55.5072 6.38292 55.8256C6.87284 56.1455 7.03794 56.7844 7.03794 57.2647C7.03794 57.9052 6.71042 58.5441 6.21942 59.0238C5.56386 59.5051 4.74646 59.6642 3.9258 59.6642C2.6163 59.6642 1.46973 59.3432 0.488281 58.3849L1.14331 57.4233C1.96074 58.0638 2.94487 58.3849 4.09035 58.3849C4.58081 58.3849 5.07342 58.3849 5.56334 58.0638C5.8688 57.9132 6.05917 57.6046 6.05648 57.2647C6.05648 56.9436 5.72681 56.6231 5.40037 56.4644C5.0734 56.3053 4.74536 56.3052 4.25328 56.3052L2.77924 56.1455C2.28878 56.1455 1.63375 55.9842 1.30785 55.6642C0.978194 55.3453 0.816879 54.864 0.816879 54.3838C0.816879 53.7449 1.14275 53.106 1.63429 52.786C2.28931 52.3058 3.1073 52.1455 3.9258 52.1455C5.07397 52.1455 6.21944 52.4676 7.03794 53.106L6.05701 54.2251H6.05488V54.2257Z" fill="black"/>
<path d="M15.5556 55.9832C15.7202 57.902 14.0799 59.5036 12.116 59.6633H11.789C9.65992 59.6633 8.02344 57.9026 8.02344 55.9832C8.02344 55.0238 8.51335 54.065 9.16944 53.2626C10.6193 51.9854 12.7941 51.9854 14.2451 53.2626C15.063 54.065 15.5556 55.0249 15.5556 55.9832ZM14.4096 55.9832C14.4096 55.3443 14.2445 54.7039 13.7535 54.2241C13.2631 53.7439 12.6064 53.5826 11.953 53.5826C11.2969 53.5826 10.6419 53.7444 10.1504 54.2241C9.65884 54.7039 9.33079 55.3443 9.49535 55.9832C9.49535 56.6253 9.65884 57.2637 10.1504 57.7445C11.2969 58.7034 12.7726 58.7034 13.917 57.7445C14.0799 57.2637 14.4096 56.6221 14.4096 55.9832Z" fill="black"/>
<path d="M23.9049 54.2252L22.9219 54.7049C22.4309 54.0644 21.4483 53.5847 20.6276 53.5847C19.9742 53.5847 19.1563 53.7455 18.6658 54.2252C17.6919 55.1819 17.6806 56.7447 18.6357 57.7159C18.6459 57.7256 18.6551 57.7353 18.6658 57.7455C19.1563 58.2236 19.9748 58.5436 20.6276 58.3844C21.6129 58.3844 22.4309 57.9026 22.9219 57.2642L23.9049 57.9047C23.2488 59.0227 21.9388 59.6638 20.6276 59.6638C19.6467 59.6638 18.6658 59.3427 17.8452 58.7022C17.1902 58.0633 16.6991 57.1028 16.8642 55.9837C16.8642 55.0243 17.1902 53.9063 18.0103 53.2631C18.6658 52.6242 19.6467 52.3037 20.4647 52.3037C21.9382 52.3037 23.2488 53.1061 23.9049 54.2252ZM25.5414 52.6247H27.2273V59.504H25.5414V52.6247ZM34.5471 59.504H28.4884V52.6247H34.3841V53.7449H29.6345V55.3454H32.9106V56.464H29.6345V58.2231H34.5471V59.504ZM41.7523 53.7449H39.1306V59.504H37.9851V53.7449H35.3661V52.6247H41.7523V53.7449ZM49.121 59.504H43.0623V52.6247H48.957V53.7449H44.2089V55.3454H47.4813V56.464H44.2089V58.2231H49.121V59.504ZM60.4203 55.6654V55.824C60.4166 56.8162 60.0708 57.7788 59.4362 58.5436C58.7833 59.1841 57.8019 59.6638 56.8172 59.6638C54.6886 59.6638 53.0517 57.903 53.0517 55.9837C53.0517 55.0243 53.5426 54.0655 54.1982 53.2631C54.8521 52.6242 55.8336 52.3037 56.8172 52.3037C58.1267 52.3037 59.2743 52.9442 59.9294 53.9058L58.9463 54.5462C58.4564 53.9057 57.6357 53.5836 56.8172 53.5836C56.1622 53.5836 55.5066 53.7444 55.0156 54.2241C54.0444 55.1808 54.032 56.7437 54.9877 57.7149C54.9963 57.7246 55.0054 57.7342 55.0156 57.7444C55.5066 58.2225 56.1622 58.3833 56.8172 58.3833C57.9632 58.3833 58.7833 57.7444 59.1098 56.7829H56.4902V55.5013L60.4209 55.6627V55.6654H60.4203ZM68.1155 59.504H61.8923V52.6247H67.7896V53.7449H63.0404V55.3454H66.3145V56.464H63.0404V58.2231H68.116V59.504H68.1155ZM76.1397 59.504H74.5017L70.5721 53.7449V59.504H69.4255V52.6247H71.062L74.9926 58.3844V52.6247H76.1397V59.504ZM84.1618 59.504H77.9402V52.6247H83.8359V53.7449H79.0884V55.3454H82.3608V56.464H79.0884V58.2231H84.1624V59.504H84.1618Z" fill="black"/>
<path d="M92.1913 59.5043H90.8802L89.4078 56.9434H86.6226V59.5043H85.4766V52.625H90.0628C90.5511 52.625 91.2088 52.7863 91.5347 53.2639C91.8644 53.7457 92.0257 54.2255 92.0257 54.8644C92.1892 55.8458 91.5309 56.7729 90.5538 56.9439L92.1892 59.5049H92.1913V59.5043ZM89.8998 55.8243C90.5549 55.8243 90.8807 55.5027 90.8807 54.8638C90.8807 54.2249 90.5549 53.9066 89.7347 53.9066H86.4607V55.8243H89.8998ZM100.377 59.5043H99.2314L98.578 58.0636H94.8087L94.1537 59.5043H93.0077L96.1198 52.625H97.4299L100.377 59.5043ZM98.0849 56.7842L96.7749 53.7452L95.4637 56.7842H98.0849Z" fill="black"/>
<path d="M106.926 59.504H101.523V52.6247H102.669V58.223H106.926V59.504ZM114.295 59.504H108.235V52.6247H114.13V53.7449H109.382V55.3454H112.658V56.464H109.382V58.223H114.295V59.504ZM0 0H41.0995V40.4639H0V0ZM7.04011 18.8751V21.2758H33.7308V18.8751H7.0412H7.04011Z" fill="black"/>
</svg>
