<svg width="230" height="61" viewBox="0 0 230 61" fill="none" xmlns="http://www.w3.org/2000/svg">
<path d="M168.645 12.8227H185.444V16.5794H184.228C184.228 16.5794 184.065 14.6169 182.116 14.6169H179.198V32.0114H175.056V14.6169H172.055C170.43 14.6169 170.024 15.9242 169.945 16.5773H168.725V12.8194H168.644V12.8227H168.645ZM203.705 12.8227H206.711V32.0114H202.65V18.5377L192.668 31.9304H189.662V16.3333C189.662 14.1268 187.716 13.8008 187.716 13.8008V12.8194H193.639V26.3773L203.702 12.8227H203.705ZM116.056 32.0114H110.777L107.047 24.9091C107.047 24.9091 105.909 22.7835 104.694 22.7835H103.151V32.0114H99.0903V16.3333C99.0903 14.1268 97.0636 13.8849 97.0636 13.8849V12.7396H103.232V20.7421H105.013C105.013 20.7421 106.233 20.6601 107.206 19.0278C110.453 13.7165 110.047 12.7396 111.426 12.7396H115.487V14.0469C112.643 14.0469 111.833 19.844 109.155 21.6392C110.454 22.1272 110.94 23.3535 113.862 28.7436C113.862 28.7436 114.594 30.5389 115.973 30.5389V32.0103H116.054H116.056V32.0114ZM228.864 27.8487C226.917 30.46 224.157 32.3374 220.345 32.3374C215.312 32.3374 210.441 28.3377 210.441 23.1927V22.0462C210.441 16.4952 214.906 12.4934 220.345 12.4934C225.78 12.4934 230 16.9832 230 22.3711H215.394V25.559C215.394 28.3356 217.586 30.5378 220.831 30.5378C223.671 30.5378 225.537 29.3136 227.079 27.6803L228.864 27.8422V27.8487ZM215.393 20.415H225.294V19.4359C225.294 16.6604 223.102 14.4549 220.344 14.4549C217.585 14.4549 215.393 16.6604 215.393 19.4359V20.415ZM134.155 25.3981C134.155 27.8454 132.45 30.1362 129.77 30.2981H129.365C127.014 30.2981 124.984 28.5817 124.741 26.7055V18.4568C124.901 16.4974 126.847 14.3718 129.365 14.3718H130.178C130.178 14.3718 133.992 14.6179 134.151 19.2707V25.3981H134.155ZM130.26 12.4945C127.907 12.4945 125.715 13.4726 124.741 14.9429V12.8237H118.653V13.9648C118.653 13.9648 120.598 14.293 120.598 16.4143V40.8322H124.737V29.97C126.684 32.1765 129.202 32.3417 130.015 32.3417C135.369 32.2586 139.02 28.0926 139.02 22.8655V21.6424C138.939 16.0051 135.534 12.4945 130.257 12.4945H130.26ZM72.6341 25.3161C72.6341 28.0883 70.528 30.4601 67.3619 30.4601C64.198 30.4601 62.2485 28.0117 62.2485 25.3161V19.193C62.2485 16.4197 64.6025 14.2941 67.3619 14.2941C70.5259 14.2941 72.6383 16.5017 72.6383 19.2772V25.3193L72.6341 25.3161ZM67.3619 12.4945C60.2208 12.4945 57.2972 18.0476 57.2972 21.7212V23.3568C57.2972 27.6036 61.4364 32.3374 67.3619 32.3374C72.8787 32.3374 77.5886 28.1725 77.5886 23.2725V21.9663C77.5886 17.0685 73.6919 12.4945 67.3619 12.4945ZM165.805 12.8227H159.717V13.9648C159.717 13.9648 161.748 14.293 161.748 16.4996V32.0146H165.805V12.8205V12.8227ZM148.031 30.0509V22.0494H151.604C153.551 22.0494 155.012 23.6007 155.012 25.8073V26.6212C155.012 28.4187 153.308 30.0509 151.441 30.0509H148.031ZM148.031 20.0901V12.7406H141.943V13.886C141.943 13.886 143.731 14.048 143.731 16.3344V32.0124H153.144C156.797 32.0124 159.394 29.8048 159.394 26.6223V25.7242C159.394 22.2945 156.876 20.171 152.901 20.171H148.032V20.0901H148.031ZM78.2367 12.8227H95.0359V16.5794H93.8202C93.8202 16.5794 93.655 14.6169 91.7077 14.6169H88.7852V32.0114H84.6471V14.6169H81.6452C80.0209 14.6169 79.6143 15.9242 79.5327 16.5773H78.3171V12.8194H78.2335L78.2367 12.8227ZM37.3331 23.5187C37.3331 28.9897 34.4931 33.8897 29.9484 36.2582L28.8916 36.7483C28.5655 36.9103 28.1589 36.9934 27.8359 36.9934C27.1053 36.9934 26.5377 36.6652 26.2126 36.1762C25.968 35.6882 25.8854 35.1981 25.968 34.6249C26.13 33.8109 26.6997 33.4806 26.9444 33.3208C29.6201 32.0966 31.326 29.3212 31.326 26.2974V18.3747C31.326 15.3542 29.6223 12.5766 26.9444 11.3524C26.9444 11.3524 26.1322 10.9454 25.968 10.0472C25.8897 9.47505 25.968 8.98494 26.2137 8.5758C26.5399 8.00364 27.1052 7.75969 27.838 7.75969C28.1652 7.75969 28.5687 7.84172 28.8916 8.00365C28.8916 8.00365 29.8647 8.49699 29.9452 8.49699C34.4889 10.9432 37.3287 15.8454 37.3287 21.2355V23.5209L37.3331 23.5187ZM17.6135 33.4007C17.7733 33.4795 18.4246 33.8908 18.5855 34.707C18.6671 35.2737 18.5855 35.7692 18.343 36.2593C18.0169 36.8282 17.4515 37.0754 16.7176 37.0754C16.3925 37.0754 15.988 36.9945 15.6619 36.8304L14.6105 36.3381C10.0636 33.8908 7.22584 28.9887 7.22584 23.5986V21.3154C7.22584 15.8465 10.0636 10.9443 14.6105 8.57688C14.6899 8.57688 15.6619 8.08571 15.6619 8.08571C15.9891 7.9227 16.3947 7.84172 16.7176 7.84172C17.4504 7.84172 18.0169 8.16883 18.343 8.65786C18.5855 9.14797 18.6692 9.63914 18.5855 10.126C18.4246 11.0231 17.6113 11.4344 17.6113 11.4344C14.9334 12.6575 13.2286 15.3553 13.2286 18.4568V26.3773C13.1493 29.3978 14.9334 32.1744 17.6113 33.4007H17.6135ZM22.2387 0C9.90373 0 0 10.0461 0 22.3776C0 34.7911 9.98313 44.7509 22.2387 44.7509C34.5746 44.7509 44.4752 34.7069 44.4752 22.3733C44.5567 10.0483 34.5725 0 22.2354 0H22.2387ZM61.8409 60.756H58.7553V47.9355H65.3331L65.5767 49.5678H60.4622V53.1583H62.0866C64.7634 53.1583 66.3867 54.4656 66.3867 56.8373C66.4693 59.4487 64.684 60.7528 61.843 60.7528L61.8409 60.756ZM62.0876 54.7128H60.5449V59.2026H62.0072C63.7109 59.2026 64.7645 58.4674 64.7645 56.9172C64.7645 55.4447 63.7914 54.7096 62.0866 54.7096V54.7128H62.0876ZM73.3657 47.9355H75.0706L79.9404 60.593L78.2345 61L76.7722 57.0025H71.5794L70.1193 60.8402H68.334L73.3657 47.9355ZM72.1502 55.4469H76.2078L74.1779 49.9747L72.1513 55.4437L72.1502 55.4469ZM90.9771 60.756V54.8769H84.5645V60.756H82.8608V48.0165H84.5634V53.3235H90.975V48.0165H92.7602V60.756H90.9771ZM104.125 60.919L98.2834 54.3058V60.7571H96.496V48.0176H98.2824V53.7337L103.554 48.0176H105.749L100.145 53.9776L106.073 60.5099L104.125 60.919Z" fill="#333333"/>
</svg>
