<svg width="277" height="48" viewBox="0 0 277 48" fill="none" xmlns="http://www.w3.org/2000/svg">
<circle cx="22" cy="24" r="22" fill="#FE3839"/>
<circle cx="28" cy="15" r="7" fill="white"/>
<rect x="60" y="2" width="5" height="44" fill="white"/>
<rect x="60" y="2" width="12" height="5" fill="white"/>
<rect x="60" y="41" width="12" height="5" fill="white"/>
<path d="M92.0323 38.56C87.819 38.56 84.339 37.16 81.5923 34.36C78.8457 31.56 77.4723 28.1067 77.4723 24C77.4723 19.8667 78.8457 16.4133 81.5923 13.64C84.339 10.84 87.819 9.44 92.0323 9.44C94.5657 9.44 96.899 10.04 99.0323 11.24C101.192 12.4133 102.872 14.0133 104.072 16.04L99.3123 18.8C98.619 17.5467 97.6323 16.5733 96.3523 15.88C95.0723 15.16 93.6323 14.8 92.0323 14.8C89.3123 14.8 87.1123 15.6533 85.4323 17.36C83.779 19.0667 82.9523 21.28 82.9523 24C82.9523 26.6933 83.779 28.8933 85.4323 30.6C87.1123 32.3067 89.3123 33.16 92.0323 33.16C93.6323 33.16 95.0723 32.8133 96.3523 32.12C97.659 31.4 98.6457 30.4267 99.3123 29.2L104.072 31.96C102.872 33.9867 101.206 35.6 99.0723 36.8C96.939 37.9733 94.5923 38.56 92.0323 38.56ZM114.983 32.72H126.783V38H109.463V10H126.583V15.28H114.983V21.24H125.583V26.44H114.983V32.72ZM138.194 32.72H148.874V38H132.674V10H138.194V32.72ZM154.01 10H159.53V38H154.01V10ZM179.993 38.56C175.78 38.56 172.3 37.16 169.553 34.36C166.807 31.56 165.433 28.1067 165.433 24C165.433 19.8667 166.807 16.4133 169.553 13.64C172.3 10.84 175.78 9.44 179.993 9.44C182.527 9.44 184.86 10.04 186.993 11.24C189.153 12.4133 190.833 14.0133 192.033 16.04L187.273 18.8C186.58 17.5467 185.593 16.5733 184.313 15.88C183.033 15.16 181.593 14.8 179.993 14.8C177.273 14.8 175.073 15.6533 173.393 17.36C171.74 19.0667 170.913 21.28 170.913 24C170.913 26.6933 171.74 28.8933 173.393 30.6C175.073 32.3067 177.273 33.16 179.993 33.16C181.593 33.16 183.033 32.8133 184.313 32.12C185.62 31.4 186.607 30.4267 187.273 29.2L192.033 31.96C190.833 33.9867 189.167 35.6 187.033 36.8C184.9 37.9733 182.553 38.56 179.993 38.56ZM220.711 34.36C217.884 37.16 214.444 38.56 210.391 38.56C206.337 38.56 202.897 37.16 200.071 34.36C197.271 31.5333 195.871 28.08 195.871 24C195.871 19.92 197.271 16.48 200.071 13.68C202.897 10.8533 206.337 9.44 210.391 9.44C214.444 9.44 217.884 10.8533 220.711 13.68C223.537 16.48 224.951 19.92 224.951 24C224.951 28.08 223.537 31.5333 220.711 34.36ZM203.951 30.6C205.684 32.3067 207.831 33.16 210.391 33.16C212.951 33.16 215.097 32.3067 216.831 30.6C218.564 28.8667 219.431 26.6667 219.431 24C219.431 21.3333 218.564 19.1333 216.831 17.4C215.097 15.6667 212.951 14.8 210.391 14.8C207.831 14.8 205.684 15.6667 203.951 17.4C202.217 19.1333 201.351 21.3333 201.351 24C201.351 26.6667 202.217 28.8667 203.951 30.6ZM258.23 10V38H252.75V19.84L244.87 32.84H244.23L236.35 19.88V38H230.83V10H236.51L244.55 23.24L252.55 10H258.23Z" fill="white"/>
<rect x="277" y="46" width="5" height="44" transform="rotate(-180 277 46)" fill="white"/>
<rect x="277" y="46" width="12" height="5" transform="rotate(-180 277 46)" fill="white"/>
<rect x="277" y="7" width="12" height="5" transform="rotate(-180 277 7)" fill="white"/>
</svg>
